<svg width="105" height="101" viewBox="0 0 105 101" fill="none" xmlns="http://www.w3.org/2000/svg">
<ellipse cx="28.0986" cy="25.9911" rx="28.0986" ry="25.84" fill="#FEDF30"/>
<path d="M74.8147 15.1119C62.1244 15.1965 51.3143 22.4426 47.038 32.6188C46.6122 33.6323 45.3381 34.1113 44.2556 33.6526C41.6741 32.559 38.804 31.9333 35.7762 31.8981C24.3986 31.7654 14.9469 40.1104 14.7907 50.4396C14.6319 60.9486 23.968 69.5111 35.5046 69.5111H75.0395C91.6611 69.5111 105.121 57.2226 104.999 42.1068C104.878 27.1478 91.2919 15.002 74.8147 15.1119Z" fill="white"/>
<path d="M22.4498 57.5222C22.6043 47.2258 31.9557 38.9073 43.2127 39.0396C46.2084 39.0747 49.048 39.6984 51.6022 40.7885C52.6734 41.2458 53.9338 40.7681 54.3551 39.758C58.586 29.6141 69.2813 22.391 81.8372 22.3066C88.2388 22.2637 94.1985 24.1019 99.0845 27.2564C93.7167 19.891 84.5241 15.0422 74.1782 15.1119C61.6225 15.1962 50.927 22.4193 46.6961 32.5632C46.2747 33.5735 45.0142 34.051 43.9431 33.5937C41.389 32.5036 38.5491 31.8799 35.5537 31.8448C24.2967 31.7125 14.9452 40.031 14.7907 50.3274C14.6853 57.3495 18.8014 63.4993 24.9646 66.7911C23.318 64.0464 22.3993 60.8847 22.4498 57.5222Z" fill="#D4E4FF"/>
<path d="M13.5937 100.744C13.348 100.744 13.0986 100.691 12.8645 100.58C12.0698 100.201 11.7527 99.2888 12.1561 98.5424L22.7387 78.9669C23.1421 78.2207 24.1135 77.9229 24.9083 78.3018C25.703 78.6806 26.0202 79.5927 25.6167 80.3391L15.0342 99.9146C14.7495 100.441 14.182 100.744 13.5937 100.744V100.744Z" fill="white"/>
<path d="M23.7242 100.744C23.4785 100.744 23.2291 100.691 22.995 100.58C22.2003 100.201 21.8831 99.2888 22.2866 98.5424L28.1642 87.6703C28.5677 86.9239 29.539 86.6261 30.3339 87.0052C31.1285 87.384 31.4457 88.2961 31.0423 89.0425L25.1646 99.9146C24.8799 100.441 24.3127 100.744 23.7242 100.744Z" fill="white"/>
<path d="M32.1509 85.1569C31.9051 85.1569 31.6557 85.104 31.4216 84.9925C30.6269 84.6136 30.3098 83.7015 30.7132 82.9551L32.8693 78.9669C33.2728 78.2207 34.2443 77.9229 35.039 78.3018C35.8337 78.6806 36.1508 79.5927 35.7474 80.3391L33.5913 84.3273C33.3066 84.8537 32.7394 85.1569 32.1509 85.1569Z" fill="white"/>
<path d="M70.658 100.744C70.4122 100.744 70.1628 100.691 69.9287 100.58C69.1341 100.201 68.8167 99.2888 69.2201 98.5424L79.8027 78.9669C80.2061 78.2207 81.1777 77.9229 81.9721 78.3018C82.7668 78.6806 83.0842 79.5927 82.6807 80.3391L72.0982 99.9146C71.8137 100.441 71.2463 100.744 70.658 100.744V100.744Z" fill="white"/>
<path d="M80.7884 100.744C80.5427 100.744 80.2933 100.691 80.0592 100.58C79.2643 100.201 78.9471 99.2888 79.3506 98.5424L89.9333 78.9669C90.3366 78.2207 91.3083 77.9229 92.1028 78.3018C92.8977 78.6806 93.2148 79.5927 92.8114 80.3391L82.2286 99.9146C81.9441 100.441 81.3767 100.744 80.7884 100.744V100.744Z" fill="white"/>
<path d="M69.8943 65.5336L45.3745 76.5127C44.9052 76.7229 44.8486 77.3289 45.2717 77.6125L50.5851 81.1764C50.9326 81.4096 50.9694 81.8818 50.6613 82.1598L40.9836 90.8934C40.4738 91.3534 40.9539 92.1483 41.636 91.9736L67.3136 85.3976C67.8656 85.2562 67.9983 84.5783 67.5361 84.2616L61.6112 80.2047C61.3138 80.0011 61.2419 79.6127 61.4489 79.3268L70.7526 66.4719C71.1436 65.9314 70.5226 65.2521 69.8943 65.5336V65.5336Z" fill="#FEE45A"/>
</svg>
